<?xml version="1.0" standalone="no"?>
<!DOCTYPE svg PUBLIC "-//W3C//DTD SVG 20010904//EN"
 "http://www.w3.org/TR/2001/REC-SVG-20010904/DTD/svg10.dtd">
<svg version="1.0" xmlns="http://www.w3.org/2000/svg"
 width="1024.000000pt" height="1024.000000pt" viewBox="0 0 1024.000000 1024.000000"
 preserveAspectRatio="xMidYMid meet">

<g transform="translate(0.000000,1024.000000) scale(0.100000,-0.100000)"
fill="#000000" stroke="none">
<path d="M3950 9081 c-6 -13 -10 -222 -10 -609 l0 -590 -97 -5 c-54 -3 -205
-6 -336 -6 -169 0 -243 -3 -253 -12 -12 -10 -14 -126 -14 -785 l0 -773 -245
-3 c-149 -2 -248 -7 -254 -13 -7 -7 -11 -244 -11 -700 l-1 -690 26 -23 26 -22
2351 2 2350 3 19 24 c18 22 19 49 19 703 0 449 -4 686 -10 699 -10 18 -23 19
-165 19 l-155 0 0 246 c0 241 -4 276 -34 296 -6 4 -100 8 -208 8 l-198 0 0
271 c0 266 -4 301 -34 321 -6 4 -129 8 -273 8 l-263 0 0 243 c0 243 -7 313
-32 328 -7 5 -239 9 -515 9 l-503 0 0 303 c0 166 -4 308 -9 315 -12 19 -1095
452 -1130 452 -20 0 -34 -7 -41 -19z m730 -440 l265 -106 0 -1115 0 -1115
-407 -3 -408 -2 0 1279 0 1279 143 -56 c78 -30 261 -103 407 -161z m-740
-1641 l0 -700 -255 0 c-197 0 -255 3 -256 13 0 12 0 1001 1 1260 l0 127 255 0
255 0 0 -700z m-803 -1612 c15 -31 10 -49 -18 -66 -17 -11 -27 -11 -50 -2 -24
10 -29 18 -29 46 0 58 73 75 97 22z m4043 -13 c12 -23 12 -28 -7 -47 -30 -30
-73 -18 -73 20 0 54 56 73 80 27z m-1726 -31 c36 -35 9 -94 -43 -94 -36 0 -51
17 -51 57 0 49 59 72 94 37z m-1277 -16 c45 -42 19 -118 -40 -118 -24 0 -67
44 -67 70 0 25 42 70 66 70 10 0 28 -10 41 -22z m2667 -40 c34 -48 4 -108 -53
-108 -52 0 -82 77 -45 114 24 24 80 20 98 -6z m-1831 -60 c16 -24 -1 -68 -29
-78 -38 -15 -64 3 -64 45 0 58 64 80 93 33z m1074 4 c29 -38 -1 -102 -47 -102
-32 0 -73 46 -65 73 16 54 80 71 112 29z m-2317 -11 c17 -32 11 -60 -15 -77
-49 -32 -104 23 -75 75 15 28 75 29 90 2z m-803 -66 c7 -20 -2 -29 -21 -22 -9
4 -13 13 -10 22 8 19 23 19 31 0z m1609 -20 c21 -32 11 -72 -21 -87 -57 -26
-107 61 -57 100 26 20 60 14 78 -13z m-1232 -11 c10 -4 16 -18 16 -40 0 -27
-5 -37 -22 -43 -47 -17 -83 25 -64 75 6 14 42 19 70 8z m2302 -2 c22 -14 25
-49 6 -72 -38 -47 -102 4 -72 59 11 21 45 28 66 13z m864 -13 c26 -47 -25
-100 -69 -72 -20 13 -26 60 -10 79 18 22 66 18 79 -7z m755 -9 c0 -16 -6 -26
-18 -28 -19 -4 -32 20 -23 44 9 25 41 13 41 -16z m-2035 -40 c0 -11 -6 -20
-14 -20 -18 0 -29 16 -21 30 11 18 35 11 35 -10z"/>
<path d="M4446 8361 c-6 -9 -11 -280 -7 -404 l1 -48 88 3 87 3 1 202 c1 135
-2 209 -10 225 -10 20 -20 23 -83 26 -40 2 -74 -2 -77 -7z"/>
<path d="M4463 7580 c-13 -5 -23 -13 -23 -17 0 -4 -1 -66 -1 -138 -1 -71 -1
-174 0 -228 l1 -98 82 3 82 3 9 34 c13 52 5 417 -10 432 -16 16 -111 22 -140
9z"/>
<path d="M1347 4519 c-107 -25 -207 -112 -248 -215 -22 -55 -24 -75 -27 -302
-4 -253 2 -307 38 -386 51 -108 140 -168 280 -188 263 -39 470 100 470 316 l0
46 -115 0 -115 0 0 -36 c0 -49 -24 -96 -59 -117 -71 -42 -191 -29 -236 25 -41
48 -47 93 -43 338 l3 228 31 39 c43 53 77 68 154 68 104 0 146 -41 151 -148
l3 -47 113 0 113 0 0 49 c0 117 -70 245 -159 291 -88 45 -253 63 -354 39z"/>
<path d="M4162 4519 c-120 -23 -214 -105 -258 -226 -29 -78 -29 -79 -29 -313
1 -214 2 -241 23 -307 39 -127 121 -202 257 -238 112 -29 237 -16 342 36 100
49 157 135 170 260 l6 59 -115 0 -115 0 -6 -52 c-5 -43 -13 -59 -41 -85 -76
-71 -225 -50 -273 39 -16 29 -18 61 -18 283 0 232 1 252 20 283 32 54 79 77
155 77 103 0 147 -39 157 -139 l6 -56 115 0 115 0 -7 60 c-20 179 -97 275
-251 315 -63 16 -182 18 -253 4z"/>
<path d="M4870 3980 l0 -542 273 4 c302 5 341 12 419 71 67 51 91 105 96 210
6 112 -10 169 -61 224 -22 24 -46 43 -53 43 -22 0 -16 15 12 30 14 8 38 35 52
60 24 40 27 56 27 135 0 117 -31 187 -102 235 -79 52 -120 58 -403 66 l-260 7
0 -543z m458 339 c66 -12 92 -44 92 -114 0 -100 -45 -124 -227 -125 l-103 0 0
126 0 125 95 -2 c53 -1 117 -6 143 -10z m54 -438 c41 -21 62 -69 56 -130 -9
-95 -62 -121 -248 -121 l-100 0 0 136 0 136 133 -4 c81 -3 142 -9 159 -17z"/>
<path d="M5892 4513 l-53 -4 3 -407 c3 -395 4 -409 26 -463 48 -120 146 -189
297 -210 191 -26 369 33 443 147 58 91 62 127 62 551 l0 383 -111 0 -112 0 6
-367 c4 -206 3 -385 -2 -407 -20 -86 -113 -136 -229 -122 -72 9 -120 38 -143
90 -17 38 -19 72 -19 429 l0 387 -57 -2 c-32 -1 -82 -3 -111 -5z"/>
<path d="M7340 3980 l0 -540 321 0 320 0 -3 98 -3 97 -212 3 -213 2 0 440 0
440 -105 0 -105 0 0 -540z"/>
<path d="M8140 3980 l0 -540 228 0 c254 0 318 8 409 51 73 35 124 92 155 171
27 69 38 237 28 434 -7 140 -9 154 -39 216 -38 81 -100 139 -180 169 -65 24
-225 38 -453 39 l-148 0 0 -540z m469 330 c55 -15 97 -55 115 -107 25 -72 23
-412 -3 -468 -38 -83 -88 -104 -253 -105 l-118 0 0 344 c0 320 1 345 18 350
25 7 203 -3 241 -14z"/>
<path d="M2040 3975 l0 -535 110 0 110 0 0 535 0 535 -110 0 -110 0 0 -535z"/>
<path d="M2415 4473 c25 -73 264 -846 303 -981 l15 -53 125 3 126 3 121 400
c67 220 140 459 162 530 l40 130 -115 3 c-63 1 -116 1 -117 0 -2 -2 -17 -57
-35 -123 -93 -354 -124 -469 -147 -560 -14 -55 -29 -103 -32 -107 -4 -5 -54
172 -111 392 l-103 400 -122 0 -123 0 13 -37z"/>
<path d="M3460 3975 l0 -535 110 0 110 0 0 535 0 535 -110 0 -110 0 0 -535z"/>
<path d="M6890 3975 l0 -535 105 0 105 0 0 535 0 535 -105 0 -105 0 0 -535z"/>
<path d="M3328 3155 c-4 -4 -7 -184 -8 -401 l-1 -394 86 0 85 0 0 278 0 277
86 -225 c47 -124 93 -247 102 -273 l16 -48 59 3 59 3 28 70 c15 39 60 158 101
264 l74 195 3 -272 2 -272 80 0 80 0 0 400 0 400 -109 0 -108 0 -98 -257 c-54
-142 -101 -261 -105 -266 -4 -4 -32 59 -63 140 -31 82 -76 200 -100 263 l-44
115 -109 3 c-60 2 -112 0 -116 -3z"/>
<path d="M4657 3138 c-2 -13 -30 -95 -60 -183 -56 -160 -207 -597 -207 -599 0
-1 42 0 92 2 l93 3 23 75 23 75 140 -3 141 -3 22 -70 22 -70 92 -3 c51 -1 92
1 92 5 0 4 -60 185 -132 400 l-133 393 -101 0 c-97 0 -102 -1 -107 -22z m152
-325 c22 -78 41 -146 41 -152 0 -7 -32 -11 -90 -11 -49 0 -90 3 -90 6 0 9 93
304 95 301 1 -1 21 -66 44 -144z"/>
<path d="M5340 2758 l0 -398 85 0 85 0 0 145 0 145 59 0 59 0 66 -117 c35 -65
71 -130 80 -145 15 -28 17 -28 112 -28 75 0 95 3 91 13 -5 13 -129 221 -161
269 l-18 27 38 16 c50 20 72 41 96 90 48 92 29 233 -38 301 -63 62 -85 67
-332 73 l-222 6 0 -397z m400 226 c38 -22 50 -54 40 -113 -8 -56 -40 -71 -163
-78 l-107 -6 0 113 0 112 98 -4 c75 -3 106 -8 132 -24z"/>
<path d="M6120 3082 l0 -69 106 -6 c58 -4 110 -4 115 -1 5 3 9 -130 9 -320 l0
-326 85 0 85 0 0 320 0 320 48 0 c26 0 77 3 115 7 l67 6 0 68 0 69 -315 0
-315 0 0 -68z"/>
<path d="M1240 1860 l0 -150 25 0 c24 0 25 3 25 60 0 54 2 60 20 60 15 0 32
-18 58 -60 31 -50 42 -60 65 -60 26 0 27 2 16 23 -7 12 -20 34 -30 49 -23 31
-24 54 -5 61 25 10 37 75 21 113 -16 38 -58 54 -142 54 l-53 0 0 -150z m150
81 c5 -11 10 -24 10 -30 0 -22 -33 -41 -71 -41 l-39 0 0 45 0 45 45 0 c34 0
47 -5 55 -19z"/>
<path d="M1729 1963 c-4 -275 -6 -253 19 -253 22 0 22 1 22 150 0 143 -1 150
-20 150 -17 0 -20 -7 -21 -47z"/>
<path d="M1838 2004 c-12 -11 5 -44 22 -44 19 0 34 25 24 41 -6 10 -37 12 -46
3z"/>
<path d="M2160 1860 c0 -122 3 -150 14 -150 8 0 17 8 21 18 6 16 7 16 16 0 10
-19 73 -25 95 -10 34 22 46 123 21 171 -15 31 -58 43 -91 26 l-26 -14 0 55 c0
51 -1 54 -25 54 l-25 0 0 -150z m118 18 c7 -7 12 -36 12 -65 0 -42 -4 -54 -20
-63 -14 -8 -26 -8 -40 0 -16 9 -20 21 -20 63 0 54 12 77 40 77 9 0 21 -5 28
-12z"/>
<path d="M2390 1860 l0 -150 25 0 25 0 0 150 0 150 -25 0 -25 0 0 -150z"/>
<path d="M2830 1861 c0 -150 0 -151 23 -151 22 0 22 2 19 102 -2 57 0 99 4 95
4 -4 24 -37 43 -73 20 -37 40 -66 45 -66 5 0 26 32 45 71 20 38 40 70 44 70 5
1 7 -44 5 -99 l-3 -100 25 0 25 0 -3 151 -3 150 -26 -3 c-21 -2 -34 -18 -67
-79 l-41 -76 -41 76 c-34 62 -46 77 -68 79 l-26 3 0 -150z"/>
<path d="M3934 1995 c-4 -9 -2 -21 4 -27 15 -15 44 -1 40 19 -4 23 -36 29 -44
8z"/>
<path d="M4259 1878 c0 -73 -2 -141 -4 -150 -2 -13 3 -18 21 -18 l24 0 0 150
c0 143 -1 150 -20 150 -19 0 -20 -7 -21 -132z"/>
<path d="M4805 1988 c-51 -45 -27 -126 43 -143 67 -16 94 -62 51 -85 -27 -15
-66 -5 -79 20 -6 11 -20 20 -30 20 -28 0 -26 -35 5 -65 19 -20 34 -25 75 -25
41 0 56 5 75 25 52 51 23 114 -69 149 -47 18 -63 40 -46 61 21 25 51 25 77 -1
26 -26 63 -32 63 -10 0 32 -45 68 -91 73 -38 4 -50 1 -74 -19z"/>
<path d="M6137 2003 c-4 -3 -7 -71 -7 -150 l0 -143 25 0 c24 0 25 3 25 60 l0
60 55 0 c48 0 55 2 55 20 0 18 -7 20 -55 20 l-55 0 0 45 0 45 60 0 c57 0 60 1
60 24 0 23 -3 24 -78 25 -43 1 -82 -2 -85 -6z"/>
<path d="M7170 1953 c0 -44 -3 -54 -12 -45 -7 7 -28 12 -48 12 -56 0 -75 -27
-75 -105 0 -48 5 -68 19 -84 23 -26 81 -28 108 -4 17 15 18 15 18 0 0 -11 8
-17 21 -17 20 0 21 3 15 133 -3 72 -5 140 -6 150 0 10 -8 17 -20 17 -18 0 -20
-7 -20 -57z m-10 -82 c17 -33 12 -89 -10 -111 -22 -22 -29 -24 -50 -10 -10 6
-15 26 -15 65 0 39 5 59 15 65 24 15 48 12 60 -9z"/>
<path d="M7656 2001 c-10 -16 5 -41 24 -41 19 0 34 25 24 41 -3 5 -14 9 -24 9
-10 0 -21 -4 -24 -9z"/>
<path d="M3400 1950 c0 -20 -5 -30 -15 -30 -8 0 -15 -9 -15 -20 0 -11 7 -20
15 -20 12 0 15 -14 15 -63 0 -82 17 -107 71 -107 21 0 39 3 39 8 0 15 -16 30
-35 33 -17 4 -20 13 -23 73 l-3 69 26 -5 c19 -4 25 -1 25 13 0 14 -7 19 -25
19 -21 0 -25 5 -25 30 0 25 -4 30 -25 30 -21 0 -25 -5 -25 -30z"/>
<path d="M5034 1965 c-3 -8 -3 -19 1 -25 4 -7 -2 -14 -14 -17 -26 -7 -29 -43
-3 -43 14 0 17 -11 19 -72 1 -81 13 -98 70 -98 26 0 33 4 33 19 0 14 -8 21
-27 23 -27 3 -28 5 -31 72 l-3 69 26 -5 c19 -4 25 -1 25 13 0 14 -7 19 -25 19
-21 0 -25 5 -25 30 0 23 -4 30 -20 30 -11 0 -23 -7 -26 -15z"/>
<path d="M7510 1950 c0 -22 -5 -30 -18 -30 -11 0 -19 -7 -19 -16 0 -9 9 -19
19 -22 15 -4 18 -15 18 -72 0 -80 13 -100 66 -100 27 0 34 4 34 19 0 13 -8 21
-22 23 -21 3 -23 9 -26 71 -3 66 -3 67 23 67 16 0 25 6 25 15 0 9 -9 15 -25
15 -21 0 -25 5 -25 30 0 25 -4 30 -25 30 -21 0 -25 -5 -25 -30z"/>
<path d="M5951 1927 c-7 -10 -27 -12 -64 -9 -42 3 -56 0 -67 -13 -19 -22 -19
-93 -1 -105 12 -7 12 -11 -2 -25 -20 -20 -21 -27 -5 -43 9 -9 8 -15 -6 -25
-25 -18 -17 -58 14 -75 35 -18 124 -10 150 13 23 21 26 53 6 80 -9 13 -30 20
-70 23 -39 3 -56 9 -56 18 0 10 13 14 40 14 53 0 84 29 77 73 -3 20 1 38 9 48
12 14 12 18 1 28 -11 9 -17 8 -26 -2z m-36 -77 c0 -32 -2 -35 -30 -35 -24 0
-31 5 -33 23 -6 38 5 54 35 50 25 -3 28 -7 28 -38z m22 -154 c3 -3 3 -12 0
-21 -7 -18 -92 -22 -102 -5 -14 22 18 42 58 37 21 -3 41 -8 44 -11z"/>
<path d="M1550 1916 c-28 -9 -38 -19 -48 -51 -16 -48 -7 -110 19 -136 13 -13
33 -19 63 -19 37 0 48 5 66 28 l22 27 -23 3 c-13 2 -26 -3 -31 -12 -17 -31
-78 -8 -78 30 0 11 15 14 65 14 l65 0 0 38 c0 21 -6 46 -12 55 -19 26 -68 36
-108 23z m70 -47 c15 -27 10 -31 -38 -27 -36 3 -39 5 -31 26 11 29 54 30 69 1z"/>
<path d="M1981 1917 c-13 -6 -28 -22 -32 -34 -7 -20 -5 -23 15 -23 13 0 26 7
30 15 3 8 17 15 30 15 19 0 27 -7 32 -24 9 -36 -2 -46 -51 -46 -37 0 -47 -5
-61 -26 -13 -19 -15 -32 -8 -52 8 -23 16 -27 52 -30 26 -2 50 2 59 10 13 10
17 10 20 1 3 -7 12 -13 21 -13 15 0 17 11 14 77 -4 109 -7 119 -43 132 -40 14
-48 14 -78 -2z m79 -135 c0 -25 -19 -42 -47 -42 -28 0 -40 24 -23 45 18 22 70
20 70 -3z"/>
<path d="M2543 1915 c-38 -16 -58 -73 -47 -132 10 -52 35 -73 88 -73 37 0 48
5 66 28 l22 27 -23 3 c-13 2 -26 -3 -31 -12 -17 -30 -60 -17 -72 22 -7 21 -5
22 58 22 l66 0 0 36 c0 48 -14 70 -51 83 -39 13 -37 13 -76 -4z m78 -52 c8
-22 6 -23 -36 -23 -49 0 -50 1 -34 31 14 27 59 22 70 -8z"/>
<path d="M3210 1919 c-26 -11 -40 -26 -40 -46 0 -19 37 -16 44 3 4 10 15 14
33 12 23 -2 29 -8 31 -35 3 -33 3 -33 -40 -33 -46 0 -75 -15 -78 -40 -5 -34 1
-50 24 -65 21 -14 28 -14 65 -2 22 8 41 11 41 6 0 -5 9 -9 20 -9 18 0 20 7 20
84 0 65 -4 88 -17 104 -22 25 -69 34 -103 21z m70 -138 c0 -25 -24 -43 -52
-39 -31 4 -36 36 -6 47 38 16 58 13 58 -8z"/>
<path d="M3604 1923 c-38 -7 -57 -40 -62 -103 -4 -53 -2 -61 21 -84 33 -33
104 -37 130 -8 23 25 21 42 -3 42 -11 0 -20 -4 -20 -10 0 -5 -11 -12 -25 -16
-29 -7 -55 10 -55 37 0 17 8 19 66 19 l67 0 -6 41 c-8 62 -52 93 -113 82z m64
-60 c3 -21 -1 -23 -37 -23 -27 0 -41 4 -41 13 0 41 72 50 78 10z"/>
<path d="M4080 1919 c-26 -11 -40 -26 -40 -46 0 -19 37 -16 48 3 5 9 18 14 33
12 19 -2 24 -9 24 -33 0 -28 -3 -30 -45 -35 -56 -7 -66 -13 -72 -45 -11 -53
55 -85 113 -55 13 7 19 7 19 0 0 -5 9 -10 21 -10 20 0 21 4 17 90 -2 63 -7 94
-18 104 -21 19 -70 27 -100 15z m70 -138 c0 -25 -24 -43 -52 -39 -31 4 -36 36
-6 47 38 16 58 13 58 -8z"/>
<path d="M4401 1917 c-33 -17 -45 -39 -37 -71 5 -21 19 -32 57 -48 34 -14 49
-26 47 -37 -4 -22 -56 -27 -64 -7 -6 17 -54 23 -54 7 0 -5 8 -19 18 -31 26
-32 108 -32 134 -1 10 13 18 29 18 36 0 22 -39 63 -67 70 -37 9 -53 23 -46 41
7 19 52 18 59 -1 7 -18 44 -20 44 -2 0 20 -14 35 -43 46 -35 14 -37 14 -66 -2z"/>
<path d="M5645 1910 c-28 -14 -35 -15 -35 -4 0 8 -9 14 -20 14 -19 0 -20 -7
-20 -105 l0 -105 25 0 c24 0 25 2 25 64 0 74 5 93 30 106 40 21 50 3 50 -86 0
-83 0 -84 25 -84 25 0 25 1 25 79 0 44 -4 91 -9 104 -12 32 -53 39 -96 17z"/>
<path d="M6905 1922 c-11 -2 -28 -11 -37 -20 -16 -14 -18 -14 -18 1 0 10 -8
17 -20 17 -19 0 -20 -7 -20 -105 l0 -105 25 0 c24 0 25 2 25 75 0 69 2 76 25
91 42 27 55 6 55 -87 0 -75 1 -79 23 -79 21 0 22 3 19 83 -1 45 -5 92 -7 103
-5 22 -34 33 -70 26z"/>
<path d="M7322 1923 c-12 -2 -29 -18 -37 -34 -15 -28 -15 -29 9 -29 13 0 26 7
30 15 3 8 17 15 30 15 19 0 27 -7 32 -24 9 -36 -2 -46 -47 -46 -62 0 -94 -43
-69 -91 8 -14 21 -19 53 -19 24 0 49 6 56 13 11 10 14 10 18 0 3 -7 13 -13 24
-13 17 0 19 8 19 69 0 91 -13 127 -52 140 -17 6 -34 10 -37 10 -3 -1 -16 -4
-29 -6z m68 -143 c0 -35 -65 -55 -77 -24 -8 21 21 44 54 44 16 0 23 -6 23 -20z"/>
<path d="M8090 1923 c-8 -3 -23 -12 -32 -21 -16 -14 -18 -13 -18 1 0 10 -8 17
-20 17 -19 0 -20 -7 -20 -105 0 -104 0 -105 24 -105 23 0 24 3 25 73 1 60 4
75 21 89 39 32 50 14 50 -78 0 -83 0 -84 25 -84 25 0 25 0 25 94 0 63 -4 97
-12 104 -18 14 -51 21 -68 15z"/>
<path d="M8273 1923 c-31 -6 -45 -27 -41 -65 2 -27 10 -37 43 -53 66 -34 67
-35 54 -51 -15 -18 -43 -18 -59 1 -13 16 -50 21 -50 6 0 -5 8 -18 18 -30 31
-39 127 -29 138 14 11 43 0 59 -54 85 -35 16 -52 29 -50 40 4 21 42 25 58 5
13 -16 50 -21 50 -6 0 5 -8 18 -17 29 -19 23 -54 32 -90 25z"/>
<path d="M1840 1815 c0 -102 1 -105 23 -105 22 0 22 2 19 105 -3 96 -5 105
-23 105 -18 0 -19 -8 -19 -105z"/>
<path d="M3770 1815 c0 -105 0 -105 25 -105 23 0 24 3 27 78 3 76 3 77 31 80
21 3 27 9 27 28 0 29 -24 32 -52 7 -17 -15 -18 -15 -18 0 0 10 -8 17 -20 17
-19 0 -20 -7 -20 -105z"/>
<path d="M3930 1815 l0 -105 25 0 25 0 0 105 0 105 -25 0 -25 0 0 -105z"/>
<path d="M5180 1815 l0 -105 25 0 c24 0 25 2 25 69 0 71 7 86 45 93 27 4 34
48 8 48 -10 0 -29 -7 -41 -16 -20 -14 -22 -14 -22 0 0 9 -9 16 -20 16 -19 0
-20 -7 -20 -105z"/>
<path d="M5361 1896 c-24 -26 -37 -81 -27 -121 11 -45 41 -65 95 -65 66 0 91
29 91 107 0 44 -5 58 -25 78 -34 34 -102 35 -134 1z m93 -19 c13 -9 18 -27 18
-61 0 -61 -20 -84 -59 -70 -24 8 -28 16 -31 53 -3 45 18 91 41 91 7 0 21 -6
31 -13z"/>
<path d="M6365 1888 c-24 -28 -27 -38 -23 -87 6 -68 30 -91 95 -91 34 0 50 6
70 26 23 23 25 31 21 86 -5 75 -28 98 -93 98 -36 0 -48 -5 -70 -32z m96 -8
c15 -9 19 -22 19 -63 0 -55 -12 -77 -41 -77 -30 0 -49 29 -49 75 0 26 6 50 16
59 18 19 28 20 55 6z"/>
<path d="M6580 1834 c0 -107 8 -124 60 -124 21 0 45 7 54 15 8 8 17 15 20 15
3 0 6 -7 6 -15 0 -8 7 -15 15 -15 12 0 15 18 15 105 0 102 -1 105 -23 105 -20
0 -22 -4 -19 -45 6 -72 -5 -110 -34 -124 -14 -6 -30 -9 -35 -6 -5 4 -9 44 -9
91 0 83 0 84 -25 84 -25 0 -25 -1 -25 -86z"/>
<path d="M7660 1815 c0 -98 1 -105 20 -105 19 0 20 7 20 105 0 98 -1 105 -20
105 -19 0 -20 -7 -20 -105z"/>
<path d="M7787 1902 c-41 -46 -44 -126 -4 -169 16 -18 32 -23 67 -23 66 0 94
31 94 105 0 74 -28 105 -94 105 -32 0 -52 -6 -63 -18z m97 -34 c32 -45 9 -128
-34 -128 -25 0 -50 37 -50 75 0 64 53 98 84 53z"/>
<path d="M4567 1747 c-8 -21 8 -39 29 -35 11 2 20 13 22 26 3 18 -1 22 -21 22
-14 0 -27 -6 -30 -13z"/>
<path d="M8434 1745 c-4 -9 -2 -21 4 -27 16 -16 47 -5 47 17 0 26 -42 34 -51
10z"/>
</g>
</svg>
